<?xml version="1.0" encoding="utf-8" standalone="no"?>
<!DOCTYPE svg PUBLIC "-//W3C//DTD SVG 1.1//EN"
  "http://www.w3.org/Graphics/SVG/1.1/DTD/svg11.dtd">
<!-- Created with matplotlib (https://matplotlib.org/) -->
<svg height="345.6pt" version="1.1" viewBox="0 0 460.8 345.6" width="460.8pt" xmlns="http://www.w3.org/2000/svg" xmlns:xlink="http://www.w3.org/1999/xlink">
 <defs>
  <style type="text/css">
*{stroke-linecap:butt;stroke-linejoin:round;}
  </style>
 </defs>
 <g id="figure_1">
  <g id="patch_1">
   <path d="M 0 345.6 
L 460.8 345.6 
L 460.8 0 
L 0 0 
z
" style="fill:#ffffff;"/>
  </g>
  <g id="axes_1">
   <g id="patch_2">
    <path d="M 57.6 307.584 
L 414.72 307.584 
L 414.72 41.472 
L 57.6 41.472 
z
" style="fill:#ffffff;"/>
   </g>
   <g id="matplotlib.axis_1">
    <g id="xtick_1">
     <g id="line2d_1">
      <path clip-path="url(#p9f1ef0248c)" d="M 57.6 307.584 
L 57.6 41.472 
" style="fill:none;stroke:#b0b0b0;stroke-linecap:square;stroke-width:0.8;"/>
     </g>
     <g id="line2d_2">
      <defs>
       <path d="M 0 0 
L 0 3.5 
" id="mb38f3a048e" style="stroke:#000000;stroke-width:0.8;"/>
      </defs>
      <g>
       <use style="stroke:#000000;stroke-width:0.8;" x="57.6" xlink:href="#mb38f3a048e" y="307.584"/>
      </g>
     </g>
     <g id="text_1">
      <!-- 0 -->
      <defs>
       <path d="M 31.78125 66.40625 
Q 24.171875 66.40625 20.328125 58.90625 
Q 16.5 51.421875 16.5 36.375 
Q 16.5 21.390625 20.328125 13.890625 
Q 24.171875 6.390625 31.78125 6.390625 
Q 39.453125 6.390625 43.28125 13.890625 
Q 47.125 21.390625 47.125 36.375 
Q 47.125 51.421875 43.28125 58.90625 
Q 39.453125 66.40625 31.78125 66.40625 
z
M 31.78125 74.21875 
Q 44.046875 74.21875 50.515625 64.515625 
Q 56.984375 54.828125 56.984375 36.375 
Q 56.984375 17.96875 50.515625 8.265625 
Q 44.046875 -1.421875 31.78125 -1.421875 
Q 19.53125 -1.421875 13.0625 8.265625 
Q 6.59375 17.96875 6.59375 36.375 
Q 6.59375 54.828125 13.0625 64.515625 
Q 19.53125 74.21875 31.78125 74.21875 
z
" id="DejaVuSans-48"/>
      </defs>
      <g transform="translate(54.41875 322.182437)scale(0.1 -0.1)">
       <use xlink:href="#DejaVuSans-48"/>
      </g>
     </g>
    </g>
    <g id="xtick_2">
     <g id="line2d_3">
      <path clip-path="url(#p9f1ef0248c)" d="M 111.709091 307.584 
L 111.709091 41.472 
" style="fill:none;stroke:#b0b0b0;stroke-linecap:square;stroke-width:0.8;"/>
     </g>
     <g id="line2d_4">
      <g>
       <use style="stroke:#000000;stroke-width:0.8;" x="111.709091" xlink:href="#mb38f3a048e" y="307.584"/>
      </g>
     </g>
     <g id="text_2">
      <!-- 5 -->
      <defs>
       <path d="M 10.796875 72.90625 
L 49.515625 72.90625 
L 49.515625 64.59375 
L 19.828125 64.59375 
L 19.828125 46.734375 
Q 21.96875 47.46875 24.109375 47.828125 
Q 26.265625 48.1875 28.421875 48.1875 
Q 40.625 48.1875 47.75 41.5 
Q 54.890625 34.8125 54.890625 23.390625 
Q 54.890625 11.625 47.5625 5.09375 
Q 40.234375 -1.421875 26.90625 -1.421875 
Q 22.3125 -1.421875 17.546875 -0.640625 
Q 12.796875 0.140625 7.71875 1.703125 
L 7.71875 11.625 
Q 12.109375 9.234375 16.796875 8.0625 
Q 21.484375 6.890625 26.703125 6.890625 
Q 35.15625 6.890625 40.078125 11.328125 
Q 45.015625 15.765625 45.015625 23.390625 
Q 45.015625 31 40.078125 35.4375 
Q 35.15625 39.890625 26.703125 39.890625 
Q 22.75 39.890625 18.8125 39.015625 
Q 14.890625 38.140625 10.796875 36.28125 
z
" id="DejaVuSans-53"/>
      </defs>
      <g transform="translate(108.527841 322.182437)scale(0.1 -0.1)">
       <use xlink:href="#DejaVuSans-53"/>
      </g>
     </g>
    </g>
    <g id="xtick_3">
     <g id="line2d_5">
      <path clip-path="url(#p9f1ef0248c)" d="M 165.818182 307.584 
L 165.818182 41.472 
" style="fill:none;stroke:#b0b0b0;stroke-linecap:square;stroke-width:0.8;"/>
     </g>
     <g id="line2d_6">
      <g>
       <use style="stroke:#000000;stroke-width:0.8;" x="165.818182" xlink:href="#mb38f3a048e" y="307.584"/>
      </g>
     </g>
     <g id="text_3">
      <!-- 10 -->
      <defs>
       <path d="M 12.40625 8.296875 
L 28.515625 8.296875 
L 28.515625 63.921875 
L 10.984375 60.40625 
L 10.984375 69.390625 
L 28.421875 72.90625 
L 38.28125 72.90625 
L 38.28125 8.296875 
L 54.390625 8.296875 
L 54.390625 0 
L 12.40625 0 
z
" id="DejaVuSans-49"/>
      </defs>
      <g transform="translate(159.455682 322.182437)scale(0.1 -0.1)">
       <use xlink:href="#DejaVuSans-49"/>
       <use x="63.623047" xlink:href="#DejaVuSans-48"/>
      </g>
     </g>
    </g>
    <g id="xtick_4">
     <g id="line2d_7">
      <path clip-path="url(#p9f1ef0248c)" d="M 219.927273 307.584 
L 219.927273 41.472 
" style="fill:none;stroke:#b0b0b0;stroke-linecap:square;stroke-width:0.8;"/>
     </g>
     <g id="line2d_8">
      <g>
       <use style="stroke:#000000;stroke-width:0.8;" x="219.927273" xlink:href="#mb38f3a048e" y="307.584"/>
      </g>
     </g>
     <g id="text_4">
      <!-- 15 -->
      <g transform="translate(213.564773 322.182437)scale(0.1 -0.1)">
       <use xlink:href="#DejaVuSans-49"/>
       <use x="63.623047" xlink:href="#DejaVuSans-53"/>
      </g>
     </g>
    </g>
    <g id="xtick_5">
     <g id="line2d_9">
      <path clip-path="url(#p9f1ef0248c)" d="M 274.036364 307.584 
L 274.036364 41.472 
" style="fill:none;stroke:#b0b0b0;stroke-linecap:square;stroke-width:0.8;"/>
     </g>
     <g id="line2d_10">
      <g>
       <use style="stroke:#000000;stroke-width:0.8;" x="274.036364" xlink:href="#mb38f3a048e" y="307.584"/>
      </g>
     </g>
     <g id="text_5">
      <!-- 20 -->
      <defs>
       <path d="M 19.1875 8.296875 
L 53.609375 8.296875 
L 53.609375 0 
L 7.328125 0 
L 7.328125 8.296875 
Q 12.9375 14.109375 22.625 23.890625 
Q 32.328125 33.6875 34.8125 36.53125 
Q 39.546875 41.84375 41.421875 45.53125 
Q 43.3125 49.21875 43.3125 52.78125 
Q 43.3125 58.59375 39.234375 62.25 
Q 35.15625 65.921875 28.609375 65.921875 
Q 23.96875 65.921875 18.8125 64.3125 
Q 13.671875 62.703125 7.8125 59.421875 
L 7.8125 69.390625 
Q 13.765625 71.78125 18.9375 73 
Q 24.125 74.21875 28.421875 74.21875 
Q 39.75 74.21875 46.484375 68.546875 
Q 53.21875 62.890625 53.21875 53.421875 
Q 53.21875 48.921875 51.53125 44.890625 
Q 49.859375 40.875 45.40625 35.40625 
Q 44.1875 33.984375 37.640625 27.21875 
Q 31.109375 20.453125 19.1875 8.296875 
z
" id="DejaVuSans-50"/>
      </defs>
      <g transform="translate(267.673864 322.182437)scale(0.1 -0.1)">
       <use xlink:href="#DejaVuSans-50"/>
       <use x="63.623047" xlink:href="#DejaVuSans-48"/>
      </g>
     </g>
    </g>
    <g id="xtick_6">
     <g id="line2d_11">
      <path clip-path="url(#p9f1ef0248c)" d="M 328.145455 307.584 
L 328.145455 41.472 
" style="fill:none;stroke:#b0b0b0;stroke-linecap:square;stroke-width:0.8;"/>
     </g>
     <g id="line2d_12">
      <g>
       <use style="stroke:#000000;stroke-width:0.8;" x="328.145455" xlink:href="#mb38f3a048e" y="307.584"/>
      </g>
     </g>
     <g id="text_6">
      <!-- 25 -->
      <g transform="translate(321.782955 322.182437)scale(0.1 -0.1)">
       <use xlink:href="#DejaVuSans-50"/>
       <use x="63.623047" xlink:href="#DejaVuSans-53"/>
      </g>
     </g>
    </g>
    <g id="xtick_7">
     <g id="line2d_13">
      <path clip-path="url(#p9f1ef0248c)" d="M 382.254545 307.584 
L 382.254545 41.472 
" style="fill:none;stroke:#b0b0b0;stroke-linecap:square;stroke-width:0.8;"/>
     </g>
     <g id="line2d_14">
      <g>
       <use style="stroke:#000000;stroke-width:0.8;" x="382.254545" xlink:href="#mb38f3a048e" y="307.584"/>
      </g>
     </g>
     <g id="text_7">
      <!-- 30 -->
      <defs>
       <path d="M 40.578125 39.3125 
Q 47.65625 37.796875 51.625 33 
Q 55.609375 28.21875 55.609375 21.1875 
Q 55.609375 10.40625 48.1875 4.484375 
Q 40.765625 -1.421875 27.09375 -1.421875 
Q 22.515625 -1.421875 17.65625 -0.515625 
Q 12.796875 0.390625 7.625 2.203125 
L 7.625 11.71875 
Q 11.71875 9.328125 16.59375 8.109375 
Q 21.484375 6.890625 26.8125 6.890625 
Q 36.078125 6.890625 40.9375 10.546875 
Q 45.796875 14.203125 45.796875 21.1875 
Q 45.796875 27.640625 41.28125 31.265625 
Q 36.765625 34.90625 28.71875 34.90625 
L 20.21875 34.90625 
L 20.21875 43.015625 
L 29.109375 43.015625 
Q 36.375 43.015625 40.234375 45.921875 
Q 44.09375 48.828125 44.09375 54.296875 
Q 44.09375 59.90625 40.109375 62.90625 
Q 36.140625 65.921875 28.71875 65.921875 
Q 24.65625 65.921875 20.015625 65.03125 
Q 15.375 64.15625 9.8125 62.3125 
L 9.8125 71.09375 
Q 15.4375 72.65625 20.34375 73.4375 
Q 25.25 74.21875 29.59375 74.21875 
Q 40.828125 74.21875 47.359375 69.109375 
Q 53.90625 64.015625 53.90625 55.328125 
Q 53.90625 49.265625 50.4375 45.09375 
Q 46.96875 40.921875 40.578125 39.3125 
z
" id="DejaVuSans-51"/>
      </defs>
      <g transform="translate(375.892045 322.182437)scale(0.1 -0.1)">
       <use xlink:href="#DejaVuSans-51"/>
       <use x="63.623047" xlink:href="#DejaVuSans-48"/>
      </g>
     </g>
    </g>
    <g id="text_8">
     <!-- # Threads -->
     <defs>
      <path d="M 51.125 44 
L 36.921875 44 
L 32.8125 27.6875 
L 47.125 27.6875 
z
M 43.796875 71.78125 
L 38.71875 51.515625 
L 52.984375 51.515625 
L 58.109375 71.78125 
L 65.921875 71.78125 
L 60.890625 51.515625 
L 76.125 51.515625 
L 76.125 44 
L 58.984375 44 
L 54.984375 27.6875 
L 70.515625 27.6875 
L 70.515625 20.21875 
L 53.078125 20.21875 
L 48 0 
L 40.1875 0 
L 45.21875 20.21875 
L 30.90625 20.21875 
L 25.875 0 
L 18.015625 0 
L 23.09375 20.21875 
L 7.71875 20.21875 
L 7.71875 27.6875 
L 24.90625 27.6875 
L 29 44 
L 13.28125 44 
L 13.28125 51.515625 
L 30.90625 51.515625 
L 35.890625 71.78125 
z
" id="DejaVuSans-35"/>
      <path id="DejaVuSans-32"/>
      <path d="M -0.296875 72.90625 
L 61.375 72.90625 
L 61.375 64.59375 
L 35.5 64.59375 
L 35.5 0 
L 25.59375 0 
L 25.59375 64.59375 
L -0.296875 64.59375 
z
" id="DejaVuSans-84"/>
      <path d="M 54.890625 33.015625 
L 54.890625 0 
L 45.90625 0 
L 45.90625 32.71875 
Q 45.90625 40.484375 42.875 44.328125 
Q 39.84375 48.1875 33.796875 48.1875 
Q 26.515625 48.1875 22.3125 43.546875 
Q 18.109375 38.921875 18.109375 30.90625 
L 18.109375 0 
L 9.078125 0 
L 9.078125 75.984375 
L 18.109375 75.984375 
L 18.109375 46.1875 
Q 21.34375 51.125 25.703125 53.5625 
Q 30.078125 56 35.796875 56 
Q 45.21875 56 50.046875 50.171875 
Q 54.890625 44.34375 54.890625 33.015625 
z
" id="DejaVuSans-104"/>
      <path d="M 41.109375 46.296875 
Q 39.59375 47.171875 37.8125 47.578125 
Q 36.03125 48 33.890625 48 
Q 26.265625 48 22.1875 43.046875 
Q 18.109375 38.09375 18.109375 28.8125 
L 18.109375 0 
L 9.078125 0 
L 9.078125 54.6875 
L 18.109375 54.6875 
L 18.109375 46.1875 
Q 20.953125 51.171875 25.484375 53.578125 
Q 30.03125 56 36.53125 56 
Q 37.453125 56 38.578125 55.875 
Q 39.703125 55.765625 41.0625 55.515625 
z
" id="DejaVuSans-114"/>
      <path d="M 56.203125 29.59375 
L 56.203125 25.203125 
L 14.890625 25.203125 
Q 15.484375 15.921875 20.484375 11.0625 
Q 25.484375 6.203125 34.421875 6.203125 
Q 39.59375 6.203125 44.453125 7.46875 
Q 49.3125 8.734375 54.109375 11.28125 
L 54.109375 2.78125 
Q 49.265625 0.734375 44.1875 -0.34375 
Q 39.109375 -1.421875 33.890625 -1.421875 
Q 20.796875 -1.421875 13.15625 6.1875 
Q 5.515625 13.8125 5.515625 26.8125 
Q 5.515625 40.234375 12.765625 48.109375 
Q 20.015625 56 32.328125 56 
Q 43.359375 56 49.78125 48.890625 
Q 56.203125 41.796875 56.203125 29.59375 
z
M 47.21875 32.234375 
Q 47.125 39.59375 43.09375 43.984375 
Q 39.0625 48.390625 32.421875 48.390625 
Q 24.90625 48.390625 20.390625 44.140625 
Q 15.875 39.890625 15.1875 32.171875 
z
" id="DejaVuSans-101"/>
      <path d="M 34.28125 27.484375 
Q 23.390625 27.484375 19.1875 25 
Q 14.984375 22.515625 14.984375 16.5 
Q 14.984375 11.71875 18.140625 8.90625 
Q 21.296875 6.109375 26.703125 6.109375 
Q 34.1875 6.109375 38.703125 11.40625 
Q 43.21875 16.703125 43.21875 25.484375 
L 43.21875 27.484375 
z
M 52.203125 31.203125 
L 52.203125 0 
L 43.21875 0 
L 43.21875 8.296875 
Q 40.140625 3.328125 35.546875 0.953125 
Q 30.953125 -1.421875 24.3125 -1.421875 
Q 15.921875 -1.421875 10.953125 3.296875 
Q 6 8.015625 6 15.921875 
Q 6 25.140625 12.171875 29.828125 
Q 18.359375 34.515625 30.609375 34.515625 
L 43.21875 34.515625 
L 43.21875 35.40625 
Q 43.21875 41.609375 39.140625 45 
Q 35.0625 48.390625 27.6875 48.390625 
Q 23 48.390625 18.546875 47.265625 
Q 14.109375 46.140625 10.015625 43.890625 
L 10.015625 52.203125 
Q 14.9375 54.109375 19.578125 55.046875 
Q 24.21875 56 28.609375 56 
Q 40.484375 56 46.34375 49.84375 
Q 52.203125 43.703125 52.203125 31.203125 
z
" id="DejaVuSans-97"/>
      <path d="M 45.40625 46.390625 
L 45.40625 75.984375 
L 54.390625 75.984375 
L 54.390625 0 
L 45.40625 0 
L 45.40625 8.203125 
Q 42.578125 3.328125 38.25 0.953125 
Q 33.9375 -1.421875 27.875 -1.421875 
Q 17.96875 -1.421875 11.734375 6.484375 
Q 5.515625 14.40625 5.515625 27.296875 
Q 5.515625 40.1875 11.734375 48.09375 
Q 17.96875 56 27.875 56 
Q 33.9375 56 38.25 53.625 
Q 42.578125 51.265625 45.40625 46.390625 
z
M 14.796875 27.296875 
Q 14.796875 17.390625 18.875 11.75 
Q 22.953125 6.109375 30.078125 6.109375 
Q 37.203125 6.109375 41.296875 11.75 
Q 45.40625 17.390625 45.40625 27.296875 
Q 45.40625 37.203125 41.296875 42.84375 
Q 37.203125 48.484375 30.078125 48.484375 
Q 22.953125 48.484375 18.875 42.84375 
Q 14.796875 37.203125 14.796875 27.296875 
z
" id="DejaVuSans-100"/>
      <path d="M 44.28125 53.078125 
L 44.28125 44.578125 
Q 40.484375 46.53125 36.375 47.5 
Q 32.28125 48.484375 27.875 48.484375 
Q 21.1875 48.484375 17.84375 46.4375 
Q 14.5 44.390625 14.5 40.28125 
Q 14.5 37.15625 16.890625 35.375 
Q 19.28125 33.59375 26.515625 31.984375 
L 29.59375 31.296875 
Q 39.15625 29.25 43.1875 25.515625 
Q 47.21875 21.78125 47.21875 15.09375 
Q 47.21875 7.46875 41.1875 3.015625 
Q 35.15625 -1.421875 24.609375 -1.421875 
Q 20.21875 -1.421875 15.453125 -0.5625 
Q 10.6875 0.296875 5.421875 2 
L 5.421875 11.28125 
Q 10.40625 8.6875 15.234375 7.390625 
Q 20.0625 6.109375 24.8125 6.109375 
Q 31.15625 6.109375 34.5625 8.28125 
Q 37.984375 10.453125 37.984375 14.40625 
Q 37.984375 18.0625 35.515625 20.015625 
Q 33.0625 21.96875 24.703125 23.78125 
L 21.578125 24.515625 
Q 13.234375 26.265625 9.515625 29.90625 
Q 5.8125 33.546875 5.8125 39.890625 
Q 5.8125 47.609375 11.28125 51.796875 
Q 16.75 56 26.8125 56 
Q 31.78125 56 36.171875 55.265625 
Q 40.578125 54.546875 44.28125 53.078125 
z
" id="DejaVuSans-115"/>
     </defs>
     <g transform="translate(210.185 335.860562)scale(0.1 -0.1)">
      <use xlink:href="#DejaVuSans-35"/>
      <use x="83.789062" xlink:href="#DejaVuSans-32"/>
      <use x="115.576172" xlink:href="#DejaVuSans-84"/>
      <use x="176.660156" xlink:href="#DejaVuSans-104"/>
      <use x="240.039062" xlink:href="#DejaVuSans-114"/>
      <use x="281.121094" xlink:href="#DejaVuSans-101"/>
      <use x="342.644531" xlink:href="#DejaVuSans-97"/>
      <use x="403.923828" xlink:href="#DejaVuSans-100"/>
      <use x="467.400391" xlink:href="#DejaVuSans-115"/>
     </g>
    </g>
   </g>
   <g id="matplotlib.axis_2">
    <g id="ytick_1">
     <g id="line2d_15">
      <path clip-path="url(#p9f1ef0248c)" d="M 57.6 295.488 
L 414.72 295.488 
" style="fill:none;stroke:#b0b0b0;stroke-linecap:square;stroke-width:0.8;"/>
     </g>
     <g id="line2d_16">
      <defs>
       <path d="M 0 0 
L -3.5 0 
" id="m15872da0cb" style="stroke:#000000;stroke-width:0.8;"/>
      </defs>
      <g>
       <use style="stroke:#000000;stroke-width:0.8;" x="57.6" xlink:href="#m15872da0cb" y="295.488"/>
      </g>
     </g>
     <g id="text_9">
      <!-- 1.0 -->
      <defs>
       <path d="M 10.6875 12.40625 
L 21 12.40625 
L 21 0 
L 10.6875 0 
z
" id="DejaVuSans-46"/>
      </defs>
      <g transform="translate(34.696875 299.287219)scale(0.1 -0.1)">
       <use xlink:href="#DejaVuSans-49"/>
       <use x="63.623047" xlink:href="#DejaVuSans-46"/>
       <use x="95.410156" xlink:href="#DejaVuSans-48"/>
      </g>
     </g>
    </g>
    <g id="ytick_2">
     <g id="line2d_17">
      <path clip-path="url(#p9f1ef0248c)" d="M 57.6 244.01566 
L 414.72 244.01566 
" style="fill:none;stroke:#b0b0b0;stroke-linecap:square;stroke-width:0.8;"/>
     </g>
     <g id="line2d_18">
      <g>
       <use style="stroke:#000000;stroke-width:0.8;" x="57.6" xlink:href="#m15872da0cb" y="244.01566"/>
      </g>
     </g>
     <g id="text_10">
      <!-- 1.5 -->
      <g transform="translate(34.696875 247.814878)scale(0.1 -0.1)">
       <use xlink:href="#DejaVuSans-49"/>
       <use x="63.623047" xlink:href="#DejaVuSans-46"/>
       <use x="95.410156" xlink:href="#DejaVuSans-53"/>
      </g>
     </g>
    </g>
    <g id="ytick_3">
     <g id="line2d_19">
      <path clip-path="url(#p9f1ef0248c)" d="M 57.6 192.543319 
L 414.72 192.543319 
" style="fill:none;stroke:#b0b0b0;stroke-linecap:square;stroke-width:0.8;"/>
     </g>
     <g id="line2d_20">
      <g>
       <use style="stroke:#000000;stroke-width:0.8;" x="57.6" xlink:href="#m15872da0cb" y="192.543319"/>
      </g>
     </g>
     <g id="text_11">
      <!-- 2.0 -->
      <g transform="translate(34.696875 196.342538)scale(0.1 -0.1)">
       <use xlink:href="#DejaVuSans-50"/>
       <use x="63.623047" xlink:href="#DejaVuSans-46"/>
       <use x="95.410156" xlink:href="#DejaVuSans-48"/>
      </g>
     </g>
    </g>
    <g id="ytick_4">
     <g id="line2d_21">
      <path clip-path="url(#p9f1ef0248c)" d="M 57.6 141.070979 
L 414.72 141.070979 
" style="fill:none;stroke:#b0b0b0;stroke-linecap:square;stroke-width:0.8;"/>
     </g>
     <g id="line2d_22">
      <g>
       <use style="stroke:#000000;stroke-width:0.8;" x="57.6" xlink:href="#m15872da0cb" y="141.070979"/>
      </g>
     </g>
     <g id="text_12">
      <!-- 2.5 -->
      <g transform="translate(34.696875 144.870197)scale(0.1 -0.1)">
       <use xlink:href="#DejaVuSans-50"/>
       <use x="63.623047" xlink:href="#DejaVuSans-46"/>
       <use x="95.410156" xlink:href="#DejaVuSans-53"/>
      </g>
     </g>
    </g>
    <g id="ytick_5">
     <g id="line2d_23">
      <path clip-path="url(#p9f1ef0248c)" d="M 57.6 89.598638 
L 414.72 89.598638 
" style="fill:none;stroke:#b0b0b0;stroke-linecap:square;stroke-width:0.8;"/>
     </g>
     <g id="line2d_24">
      <g>
       <use style="stroke:#000000;stroke-width:0.8;" x="57.6" xlink:href="#m15872da0cb" y="89.598638"/>
      </g>
     </g>
     <g id="text_13">
      <!-- 3.0 -->
      <g transform="translate(34.696875 93.397857)scale(0.1 -0.1)">
       <use xlink:href="#DejaVuSans-51"/>
       <use x="63.623047" xlink:href="#DejaVuSans-46"/>
       <use x="95.410156" xlink:href="#DejaVuSans-48"/>
      </g>
     </g>
    </g>
    <g id="text_14">
     <!-- x Speed -->
     <defs>
      <path d="M 54.890625 54.6875 
L 35.109375 28.078125 
L 55.90625 0 
L 45.3125 0 
L 29.390625 21.484375 
L 13.484375 0 
L 2.875 0 
L 24.125 28.609375 
L 4.6875 54.6875 
L 15.28125 54.6875 
L 29.78125 35.203125 
L 44.28125 54.6875 
z
" id="DejaVuSans-120"/>
      <path d="M 53.515625 70.515625 
L 53.515625 60.890625 
Q 47.90625 63.578125 42.921875 64.890625 
Q 37.9375 66.21875 33.296875 66.21875 
Q 25.25 66.21875 20.875 63.09375 
Q 16.5 59.96875 16.5 54.203125 
Q 16.5 49.359375 19.40625 46.890625 
Q 22.3125 44.4375 30.421875 42.921875 
L 36.375 41.703125 
Q 47.40625 39.59375 52.65625 34.296875 
Q 57.90625 29 57.90625 20.125 
Q 57.90625 9.515625 50.796875 4.046875 
Q 43.703125 -1.421875 29.984375 -1.421875 
Q 24.8125 -1.421875 18.96875 -0.25 
Q 13.140625 0.921875 6.890625 3.21875 
L 6.890625 13.375 
Q 12.890625 10.015625 18.65625 8.296875 
Q 24.421875 6.59375 29.984375 6.59375 
Q 38.421875 6.59375 43.015625 9.90625 
Q 47.609375 13.234375 47.609375 19.390625 
Q 47.609375 24.75 44.3125 27.78125 
Q 41.015625 30.8125 33.5 32.328125 
L 27.484375 33.5 
Q 16.453125 35.6875 11.515625 40.375 
Q 6.59375 45.0625 6.59375 53.421875 
Q 6.59375 63.09375 13.40625 68.65625 
Q 20.21875 74.21875 32.171875 74.21875 
Q 37.3125 74.21875 42.625 73.28125 
Q 47.953125 72.359375 53.515625 70.515625 
z
" id="DejaVuSans-83"/>
      <path d="M 18.109375 8.203125 
L 18.109375 -20.796875 
L 9.078125 -20.796875 
L 9.078125 54.6875 
L 18.109375 54.6875 
L 18.109375 46.390625 
Q 20.953125 51.265625 25.265625 53.625 
Q 29.59375 56 35.59375 56 
Q 45.5625 56 51.78125 48.09375 
Q 58.015625 40.1875 58.015625 27.296875 
Q 58.015625 14.40625 51.78125 6.484375 
Q 45.5625 -1.421875 35.59375 -1.421875 
Q 29.59375 -1.421875 25.265625 0.953125 
Q 20.953125 3.328125 18.109375 8.203125 
z
M 48.6875 27.296875 
Q 48.6875 37.203125 44.609375 42.84375 
Q 40.53125 48.484375 33.40625 48.484375 
Q 26.265625 48.484375 22.1875 42.84375 
Q 18.109375 37.203125 18.109375 27.296875 
Q 18.109375 17.390625 22.1875 11.75 
Q 26.265625 6.109375 33.40625 6.109375 
Q 40.53125 6.109375 44.609375 11.75 
Q 48.6875 17.390625 48.6875 27.296875 
z
" id="DejaVuSans-112"/>
     </defs>
     <g transform="translate(28.617187 194.752219)rotate(-90)scale(0.1 -0.1)">
      <use xlink:href="#DejaVuSans-120"/>
      <use x="59.179688" xlink:href="#DejaVuSans-32"/>
      <use x="90.966797" xlink:href="#DejaVuSans-83"/>
      <use x="154.443359" xlink:href="#DejaVuSans-112"/>
      <use x="217.919922" xlink:href="#DejaVuSans-101"/>
      <use x="279.443359" xlink:href="#DejaVuSans-101"/>
      <use x="340.966797" xlink:href="#DejaVuSans-100"/>
     </g>
    </g>
   </g>
   <g id="line2d_25">
    <path clip-path="url(#p9f1ef0248c)" d="M 68.421818 295.488 
L 79.243636 205.926128 
L 90.065455 135.923745 
L 100.887273 134.894298 
L 111.709091 131.805957 
L 122.530909 60.774128 
L 133.352727 75.186383 
L 144.174545 54.597447 
L 154.996364 66.950809 
L 165.818182 57.685787 
L 176.64 58.715234 
L 187.461818 55.626894 
L 198.283636 57.685787 
L 209.105455 54.597447 
L 219.927273 57.685787 
L 230.749091 62.833021 
L 241.570909 79.30417 
L 252.392727 74.156936 
L 263.214545 60.774128 
L 274.036364 57.685787 
L 284.858182 55.626894 
L 295.68 65.921362 
L 306.501818 56.65634 
L 317.323636 60.774128 
L 328.145455 53.568 
L 338.967273 55.626894 
L 349.789091 57.685787 
L 360.610909 56.65634 
L 371.432727 62.833021 
L 382.254545 56.65634 
L 393.076364 89.598638 
L 403.898182 59.744681 
" style="fill:none;stroke:#0000ff;stroke-dasharray:5.55,2.4;stroke-dashoffset:0;stroke-width:1.5;"/>
    <defs>
     <path d="M -0 3 
L 3 -3 
L -3 -3 
z
" id="m2efa5a5f47" style="stroke:#0000ff;stroke-linejoin:miter;"/>
    </defs>
    <g clip-path="url(#p9f1ef0248c)">
     <use style="fill:#0000ff;stroke:#0000ff;stroke-linejoin:miter;" x="68.421818" xlink:href="#m2efa5a5f47" y="295.488"/>
     <use style="fill:#0000ff;stroke:#0000ff;stroke-linejoin:miter;" x="79.243636" xlink:href="#m2efa5a5f47" y="205.926128"/>
     <use style="fill:#0000ff;stroke:#0000ff;stroke-linejoin:miter;" x="90.065455" xlink:href="#m2efa5a5f47" y="135.923745"/>
     <use style="fill:#0000ff;stroke:#0000ff;stroke-linejoin:miter;" x="100.887273" xlink:href="#m2efa5a5f47" y="134.894298"/>
     <use style="fill:#0000ff;stroke:#0000ff;stroke-linejoin:miter;" x="111.709091" xlink:href="#m2efa5a5f47" y="131.805957"/>
     <use style="fill:#0000ff;stroke:#0000ff;stroke-linejoin:miter;" x="122.530909" xlink:href="#m2efa5a5f47" y="60.774128"/>
     <use style="fill:#0000ff;stroke:#0000ff;stroke-linejoin:miter;" x="133.352727" xlink:href="#m2efa5a5f47" y="75.186383"/>
     <use style="fill:#0000ff;stroke:#0000ff;stroke-linejoin:miter;" x="144.174545" xlink:href="#m2efa5a5f47" y="54.597447"/>
     <use style="fill:#0000ff;stroke:#0000ff;stroke-linejoin:miter;" x="154.996364" xlink:href="#m2efa5a5f47" y="66.950809"/>
     <use style="fill:#0000ff;stroke:#0000ff;stroke-linejoin:miter;" x="165.818182" xlink:href="#m2efa5a5f47" y="57.685787"/>
     <use style="fill:#0000ff;stroke:#0000ff;stroke-linejoin:miter;" x="176.64" xlink:href="#m2efa5a5f47" y="58.715234"/>
     <use style="fill:#0000ff;stroke:#0000ff;stroke-linejoin:miter;" x="187.461818" xlink:href="#m2efa5a5f47" y="55.626894"/>
     <use style="fill:#0000ff;stroke:#0000ff;stroke-linejoin:miter;" x="198.283636" xlink:href="#m2efa5a5f47" y="57.685787"/>
     <use style="fill:#0000ff;stroke:#0000ff;stroke-linejoin:miter;" x="209.105455" xlink:href="#m2efa5a5f47" y="54.597447"/>
     <use style="fill:#0000ff;stroke:#0000ff;stroke-linejoin:miter;" x="219.927273" xlink:href="#m2efa5a5f47" y="57.685787"/>
     <use style="fill:#0000ff;stroke:#0000ff;stroke-linejoin:miter;" x="230.749091" xlink:href="#m2efa5a5f47" y="62.833021"/>
     <use style="fill:#0000ff;stroke:#0000ff;stroke-linejoin:miter;" x="241.570909" xlink:href="#m2efa5a5f47" y="79.30417"/>
     <use style="fill:#0000ff;stroke:#0000ff;stroke-linejoin:miter;" x="252.392727" xlink:href="#m2efa5a5f47" y="74.156936"/>
     <use style="fill:#0000ff;stroke:#0000ff;stroke-linejoin:miter;" x="263.214545" xlink:href="#m2efa5a5f47" y="60.774128"/>
     <use style="fill:#0000ff;stroke:#0000ff;stroke-linejoin:miter;" x="274.036364" xlink:href="#m2efa5a5f47" y="57.685787"/>
     <use style="fill:#0000ff;stroke:#0000ff;stroke-linejoin:miter;" x="284.858182" xlink:href="#m2efa5a5f47" y="55.626894"/>
     <use style="fill:#0000ff;stroke:#0000ff;stroke-linejoin:miter;" x="295.68" xlink:href="#m2efa5a5f47" y="65.921362"/>
     <use style="fill:#0000ff;stroke:#0000ff;stroke-linejoin:miter;" x="306.501818" xlink:href="#m2efa5a5f47" y="56.65634"/>
     <use style="fill:#0000ff;stroke:#0000ff;stroke-linejoin:miter;" x="317.323636" xlink:href="#m2efa5a5f47" y="60.774128"/>
     <use style="fill:#0000ff;stroke:#0000ff;stroke-linejoin:miter;" x="328.145455" xlink:href="#m2efa5a5f47" y="53.568"/>
     <use style="fill:#0000ff;stroke:#0000ff;stroke-linejoin:miter;" x="338.967273" xlink:href="#m2efa5a5f47" y="55.626894"/>
     <use style="fill:#0000ff;stroke:#0000ff;stroke-linejoin:miter;" x="349.789091" xlink:href="#m2efa5a5f47" y="57.685787"/>
     <use style="fill:#0000ff;stroke:#0000ff;stroke-linejoin:miter;" x="360.610909" xlink:href="#m2efa5a5f47" y="56.65634"/>
     <use style="fill:#0000ff;stroke:#0000ff;stroke-linejoin:miter;" x="371.432727" xlink:href="#m2efa5a5f47" y="62.833021"/>
     <use style="fill:#0000ff;stroke:#0000ff;stroke-linejoin:miter;" x="382.254545" xlink:href="#m2efa5a5f47" y="56.65634"/>
     <use style="fill:#0000ff;stroke:#0000ff;stroke-linejoin:miter;" x="393.076364" xlink:href="#m2efa5a5f47" y="89.598638"/>
     <use style="fill:#0000ff;stroke:#0000ff;stroke-linejoin:miter;" x="403.898182" xlink:href="#m2efa5a5f47" y="59.744681"/>
    </g>
   </g>
   <g id="line2d_26">
    <path clip-path="url(#p9f1ef0248c)" d="M 68.421818 295.488 
L 79.243636 205.926128 
L 90.065455 145.188766 
L 100.887273 55.626894 
L 111.709091 104.010894 
L 122.530909 75.186383 
L 133.352727 66.950809 
L 144.174545 58.715234 
L 154.996364 73.127489 
L 165.818182 56.65634 
L 176.64 64.891915 
L 187.461818 57.685787 
L 198.283636 63.862468 
L 209.105455 54.597447 
L 219.927273 60.774128 
L 230.749091 57.685787 
L 241.570909 62.833021 
L 252.392727 59.744681 
L 263.214545 70.039149 
L 274.036364 93.716426 
L 284.858182 86.510298 
L 295.68 56.65634 
L 306.501818 62.833021 
L 317.323636 61.803574 
L 328.145455 61.803574 
L 338.967273 59.744681 
L 349.789091 61.803574 
L 360.610909 59.744681 
L 371.432727 67.980255 
L 382.254545 62.833021 
L 393.076364 60.774128 
L 403.898182 63.862468 
" style="fill:none;stroke:#ff0000;stroke-dasharray:5.55,2.4;stroke-dashoffset:0;stroke-width:1.5;"/>
    <defs>
     <path d="M 0 -3 
L -3 3 
L 3 3 
z
" id="m37cec100bc" style="stroke:#ff0000;stroke-linejoin:miter;"/>
    </defs>
    <g clip-path="url(#p9f1ef0248c)">
     <use style="fill:#ff0000;stroke:#ff0000;stroke-linejoin:miter;" x="68.421818" xlink:href="#m37cec100bc" y="295.488"/>
     <use style="fill:#ff0000;stroke:#ff0000;stroke-linejoin:miter;" x="79.243636" xlink:href="#m37cec100bc" y="205.926128"/>
     <use style="fill:#ff0000;stroke:#ff0000;stroke-linejoin:miter;" x="90.065455" xlink:href="#m37cec100bc" y="145.188766"/>
     <use style="fill:#ff0000;stroke:#ff0000;stroke-linejoin:miter;" x="100.887273" xlink:href="#m37cec100bc" y="55.626894"/>
     <use style="fill:#ff0000;stroke:#ff0000;stroke-linejoin:miter;" x="111.709091" xlink:href="#m37cec100bc" y="104.010894"/>
     <use style="fill:#ff0000;stroke:#ff0000;stroke-linejoin:miter;" x="122.530909" xlink:href="#m37cec100bc" y="75.186383"/>
     <use style="fill:#ff0000;stroke:#ff0000;stroke-linejoin:miter;" x="133.352727" xlink:href="#m37cec100bc" y="66.950809"/>
     <use style="fill:#ff0000;stroke:#ff0000;stroke-linejoin:miter;" x="144.174545" xlink:href="#m37cec100bc" y="58.715234"/>
     <use style="fill:#ff0000;stroke:#ff0000;stroke-linejoin:miter;" x="154.996364" xlink:href="#m37cec100bc" y="73.127489"/>
     <use style="fill:#ff0000;stroke:#ff0000;stroke-linejoin:miter;" x="165.818182" xlink:href="#m37cec100bc" y="56.65634"/>
     <use style="fill:#ff0000;stroke:#ff0000;stroke-linejoin:miter;" x="176.64" xlink:href="#m37cec100bc" y="64.891915"/>
     <use style="fill:#ff0000;stroke:#ff0000;stroke-linejoin:miter;" x="187.461818" xlink:href="#m37cec100bc" y="57.685787"/>
     <use style="fill:#ff0000;stroke:#ff0000;stroke-linejoin:miter;" x="198.283636" xlink:href="#m37cec100bc" y="63.862468"/>
     <use style="fill:#ff0000;stroke:#ff0000;stroke-linejoin:miter;" x="209.105455" xlink:href="#m37cec100bc" y="54.597447"/>
     <use style="fill:#ff0000;stroke:#ff0000;stroke-linejoin:miter;" x="219.927273" xlink:href="#m37cec100bc" y="60.774128"/>
     <use style="fill:#ff0000;stroke:#ff0000;stroke-linejoin:miter;" x="230.749091" xlink:href="#m37cec100bc" y="57.685787"/>
     <use style="fill:#ff0000;stroke:#ff0000;stroke-linejoin:miter;" x="241.570909" xlink:href="#m37cec100bc" y="62.833021"/>
     <use style="fill:#ff0000;stroke:#ff0000;stroke-linejoin:miter;" x="252.392727" xlink:href="#m37cec100bc" y="59.744681"/>
     <use style="fill:#ff0000;stroke:#ff0000;stroke-linejoin:miter;" x="263.214545" xlink:href="#m37cec100bc" y="70.039149"/>
     <use style="fill:#ff0000;stroke:#ff0000;stroke-linejoin:miter;" x="274.036364" xlink:href="#m37cec100bc" y="93.716426"/>
     <use style="fill:#ff0000;stroke:#ff0000;stroke-linejoin:miter;" x="284.858182" xlink:href="#m37cec100bc" y="86.510298"/>
     <use style="fill:#ff0000;stroke:#ff0000;stroke-linejoin:miter;" x="295.68" xlink:href="#m37cec100bc" y="56.65634"/>
     <use style="fill:#ff0000;stroke:#ff0000;stroke-linejoin:miter;" x="306.501818" xlink:href="#m37cec100bc" y="62.833021"/>
     <use style="fill:#ff0000;stroke:#ff0000;stroke-linejoin:miter;" x="317.323636" xlink:href="#m37cec100bc" y="61.803574"/>
     <use style="fill:#ff0000;stroke:#ff0000;stroke-linejoin:miter;" x="328.145455" xlink:href="#m37cec100bc" y="61.803574"/>
     <use style="fill:#ff0000;stroke:#ff0000;stroke-linejoin:miter;" x="338.967273" xlink:href="#m37cec100bc" y="59.744681"/>
     <use style="fill:#ff0000;stroke:#ff0000;stroke-linejoin:miter;" x="349.789091" xlink:href="#m37cec100bc" y="61.803574"/>
     <use style="fill:#ff0000;stroke:#ff0000;stroke-linejoin:miter;" x="360.610909" xlink:href="#m37cec100bc" y="59.744681"/>
     <use style="fill:#ff0000;stroke:#ff0000;stroke-linejoin:miter;" x="371.432727" xlink:href="#m37cec100bc" y="67.980255"/>
     <use style="fill:#ff0000;stroke:#ff0000;stroke-linejoin:miter;" x="382.254545" xlink:href="#m37cec100bc" y="62.833021"/>
     <use style="fill:#ff0000;stroke:#ff0000;stroke-linejoin:miter;" x="393.076364" xlink:href="#m37cec100bc" y="60.774128"/>
     <use style="fill:#ff0000;stroke:#ff0000;stroke-linejoin:miter;" x="403.898182" xlink:href="#m37cec100bc" y="63.862468"/>
    </g>
   </g>
   <g id="patch_3">
    <path d="M 57.6 307.584 
L 57.6 41.472 
" style="fill:none;stroke:#000000;stroke-linecap:square;stroke-linejoin:miter;stroke-width:0.8;"/>
   </g>
   <g id="patch_4">
    <path d="M 414.72 307.584 
L 414.72 41.472 
" style="fill:none;stroke:#000000;stroke-linecap:square;stroke-linejoin:miter;stroke-width:0.8;"/>
   </g>
   <g id="patch_5">
    <path d="M 57.6 307.584 
L 414.72 307.584 
" style="fill:none;stroke:#000000;stroke-linecap:square;stroke-linejoin:miter;stroke-width:0.8;"/>
   </g>
   <g id="patch_6">
    <path d="M 57.6 41.472 
L 414.72 41.472 
" style="fill:none;stroke:#000000;stroke-linecap:square;stroke-linejoin:miter;stroke-width:0.8;"/>
   </g>
   <g id="text_15">
    <!-- Thread Based Speedup -->
    <defs>
     <path d="M 19.671875 34.8125 
L 19.671875 8.109375 
L 35.5 8.109375 
Q 43.453125 8.109375 47.28125 11.40625 
Q 51.125 14.703125 51.125 21.484375 
Q 51.125 28.328125 47.28125 31.5625 
Q 43.453125 34.8125 35.5 34.8125 
z
M 19.671875 64.796875 
L 19.671875 42.828125 
L 34.28125 42.828125 
Q 41.5 42.828125 45.03125 45.53125 
Q 48.578125 48.25 48.578125 53.8125 
Q 48.578125 59.328125 45.03125 62.0625 
Q 41.5 64.796875 34.28125 64.796875 
z
M 9.8125 72.90625 
L 35.015625 72.90625 
Q 46.296875 72.90625 52.390625 68.21875 
Q 58.5 63.53125 58.5 54.890625 
Q 58.5 48.1875 55.375 44.234375 
Q 52.25 40.28125 46.1875 39.3125 
Q 53.46875 37.75 57.5 32.78125 
Q 61.53125 27.828125 61.53125 20.40625 
Q 61.53125 10.640625 54.890625 5.3125 
Q 48.25 0 35.984375 0 
L 9.8125 0 
z
" id="DejaVuSans-66"/>
     <path d="M 8.5 21.578125 
L 8.5 54.6875 
L 17.484375 54.6875 
L 17.484375 21.921875 
Q 17.484375 14.15625 20.5 10.265625 
Q 23.53125 6.390625 29.59375 6.390625 
Q 36.859375 6.390625 41.078125 11.03125 
Q 45.3125 15.671875 45.3125 23.6875 
L 45.3125 54.6875 
L 54.296875 54.6875 
L 54.296875 0 
L 45.3125 0 
L 45.3125 8.40625 
Q 42.046875 3.421875 37.71875 1 
Q 33.40625 -1.421875 27.6875 -1.421875 
Q 18.265625 -1.421875 13.375 4.4375 
Q 8.5 10.296875 8.5 21.578125 
z
M 31.109375 56 
z
" id="DejaVuSans-117"/>
    </defs>
    <g transform="translate(166.394063 35.472)scale(0.12 -0.12)">
     <use xlink:href="#DejaVuSans-84"/>
     <use x="61.083984" xlink:href="#DejaVuSans-104"/>
     <use x="124.462891" xlink:href="#DejaVuSans-114"/>
     <use x="165.544922" xlink:href="#DejaVuSans-101"/>
     <use x="227.068359" xlink:href="#DejaVuSans-97"/>
     <use x="288.347656" xlink:href="#DejaVuSans-100"/>
     <use x="351.824219" xlink:href="#DejaVuSans-32"/>
     <use x="383.611328" xlink:href="#DejaVuSans-66"/>
     <use x="452.214844" xlink:href="#DejaVuSans-97"/>
     <use x="513.494141" xlink:href="#DejaVuSans-115"/>
     <use x="565.59375" xlink:href="#DejaVuSans-101"/>
     <use x="627.117188" xlink:href="#DejaVuSans-100"/>
     <use x="690.59375" xlink:href="#DejaVuSans-32"/>
     <use x="722.380859" xlink:href="#DejaVuSans-83"/>
     <use x="785.857422" xlink:href="#DejaVuSans-112"/>
     <use x="849.333984" xlink:href="#DejaVuSans-101"/>
     <use x="910.857422" xlink:href="#DejaVuSans-101"/>
     <use x="972.380859" xlink:href="#DejaVuSans-100"/>
     <use x="1035.857422" xlink:href="#DejaVuSans-117"/>
     <use x="1099.236328" xlink:href="#DejaVuSans-112"/>
    </g>
   </g>
   <g id="legend_1">
    <g id="patch_7">
     <path d="M 341.329375 302.584 
L 407.72 302.584 
Q 409.72 302.584 409.72 300.584 
L 409.72 271.6715 
Q 409.72 269.6715 407.72 269.6715 
L 341.329375 269.6715 
Q 339.329375 269.6715 339.329375 271.6715 
L 339.329375 300.584 
Q 339.329375 302.584 341.329375 302.584 
z
" style="fill:#ffffff;opacity:0.8;stroke:#cccccc;stroke-linejoin:miter;"/>
    </g>
    <g id="line2d_27">
     <path d="M 343.329375 277.769937 
L 363.329375 277.769937 
" style="fill:none;stroke:#0000ff;stroke-dasharray:5.55,2.4;stroke-dashoffset:0;stroke-width:1.5;"/>
    </g>
    <g id="line2d_28">
     <g>
      <use style="fill:#0000ff;stroke:#0000ff;stroke-linejoin:miter;" x="353.329375" xlink:href="#m2efa5a5f47" y="277.769937"/>
     </g>
    </g>
    <g id="text_16">
     <!-- view_1 -->
     <defs>
      <path d="M 2.984375 54.6875 
L 12.5 54.6875 
L 29.59375 8.796875 
L 46.6875 54.6875 
L 56.203125 54.6875 
L 35.6875 0 
L 23.484375 0 
z
" id="DejaVuSans-118"/>
      <path d="M 9.421875 54.6875 
L 18.40625 54.6875 
L 18.40625 0 
L 9.421875 0 
z
M 9.421875 75.984375 
L 18.40625 75.984375 
L 18.40625 64.59375 
L 9.421875 64.59375 
z
" id="DejaVuSans-105"/>
      <path d="M 4.203125 54.6875 
L 13.1875 54.6875 
L 24.421875 12.015625 
L 35.59375 54.6875 
L 46.1875 54.6875 
L 57.421875 12.015625 
L 68.609375 54.6875 
L 77.59375 54.6875 
L 63.28125 0 
L 52.6875 0 
L 40.921875 44.828125 
L 29.109375 0 
L 18.5 0 
z
" id="DejaVuSans-119"/>
      <path d="M 50.984375 -16.609375 
L 50.984375 -23.578125 
L -0.984375 -23.578125 
L -0.984375 -16.609375 
z
" id="DejaVuSans-95"/>
     </defs>
     <g transform="translate(371.329375 281.269937)scale(0.1 -0.1)">
      <use xlink:href="#DejaVuSans-118"/>
      <use x="59.179688" xlink:href="#DejaVuSans-105"/>
      <use x="86.962891" xlink:href="#DejaVuSans-101"/>
      <use x="148.486328" xlink:href="#DejaVuSans-119"/>
      <use x="230.273438" xlink:href="#DejaVuSans-95"/>
      <use x="280.273438" xlink:href="#DejaVuSans-49"/>
     </g>
    </g>
    <g id="line2d_29">
     <path d="M 343.329375 292.726187 
L 363.329375 292.726187 
" style="fill:none;stroke:#ff0000;stroke-dasharray:5.55,2.4;stroke-dashoffset:0;stroke-width:1.5;"/>
    </g>
    <g id="line2d_30">
     <g>
      <use style="fill:#ff0000;stroke:#ff0000;stroke-linejoin:miter;" x="353.329375" xlink:href="#m37cec100bc" y="292.726187"/>
     </g>
    </g>
    <g id="text_17">
     <!-- view_2 -->
     <g transform="translate(371.329375 296.226187)scale(0.1 -0.1)">
      <use xlink:href="#DejaVuSans-118"/>
      <use x="59.179688" xlink:href="#DejaVuSans-105"/>
      <use x="86.962891" xlink:href="#DejaVuSans-101"/>
      <use x="148.486328" xlink:href="#DejaVuSans-119"/>
      <use x="230.273438" xlink:href="#DejaVuSans-95"/>
      <use x="280.273438" xlink:href="#DejaVuSans-50"/>
     </g>
    </g>
   </g>
  </g>
 </g>
 <defs>
  <clipPath id="p9f1ef0248c">
   <rect height="266.112" width="357.12" x="57.6" y="41.472"/>
  </clipPath>
 </defs>
</svg>
